<svg id="visual" viewBox="0 0 960 540" width="960" height="540" xmlns="http://www.w3.org/2000/svg" xmlns:xlink="http://www.w3.org/1999/xlink" version="1.1"><rect x="0" y="0" width="960" height="540" fill="#001220"></rect><defs><linearGradient id="grad1_0" x1="43.8%" y1="100%" x2="100%" y2="0%"><stop offset="14.444444444444446%" stop-color="#fbae3c" stop-opacity="1"></stop><stop offset="85.55555555555554%" stop-color="#fbae3c" stop-opacity="1"></stop></linearGradient></defs><defs><linearGradient id="grad1_1" x1="43.8%" y1="100%" x2="100%" y2="0%"><stop offset="14.444444444444446%" stop-color="#fbae3c" stop-opacity="1"></stop><stop offset="85.55555555555554%" stop-color="#f48350" stop-opacity="1"></stop></linearGradient></defs><defs><linearGradient id="grad1_2" x1="43.8%" y1="100%" x2="100%" y2="0%"><stop offset="14.444444444444446%" stop-color="#d96162" stop-opacity="1"></stop><stop offset="85.55555555555554%" stop-color="#f48350" stop-opacity="1"></stop></linearGradient></defs><defs><linearGradient id="grad1_3" x1="43.8%" y1="100%" x2="100%" y2="0%"><stop offset="14.444444444444446%" stop-color="#d96162" stop-opacity="1"></stop><stop offset="85.55555555555554%" stop-color="#af4b6d" stop-opacity="1"></stop></linearGradient></defs><defs><linearGradient id="grad1_4" x1="43.8%" y1="100%" x2="100%" y2="0%"><stop offset="14.444444444444446%" stop-color="#7c3e6b" stop-opacity="1"></stop><stop offset="85.55555555555554%" stop-color="#af4b6d" stop-opacity="1"></stop></linearGradient></defs><defs><linearGradient id="grad1_5" x1="43.8%" y1="100%" x2="100%" y2="0%"><stop offset="14.444444444444446%" stop-color="#7c3e6b" stop-opacity="1"></stop><stop offset="85.55555555555554%" stop-color="#49335c" stop-opacity="1"></stop></linearGradient></defs><defs><linearGradient id="grad1_6" x1="43.8%" y1="100%" x2="100%" y2="0%"><stop offset="14.444444444444446%" stop-color="#1d2540" stop-opacity="1"></stop><stop offset="85.55555555555554%" stop-color="#49335c" stop-opacity="1"></stop></linearGradient></defs><defs><linearGradient id="grad1_7" x1="43.8%" y1="100%" x2="100%" y2="0%"><stop offset="14.444444444444446%" stop-color="#1d2540" stop-opacity="1"></stop><stop offset="85.55555555555554%" stop-color="#001220" stop-opacity="1"></stop></linearGradient></defs><defs><linearGradient id="grad2_0" x1="0%" y1="100%" x2="56.3%" y2="0%"><stop offset="14.444444444444446%" stop-color="#fbae3c" stop-opacity="1"></stop><stop offset="85.55555555555554%" stop-color="#fbae3c" stop-opacity="1"></stop></linearGradient></defs><defs><linearGradient id="grad2_1" x1="0%" y1="100%" x2="56.3%" y2="0%"><stop offset="14.444444444444446%" stop-color="#f48350" stop-opacity="1"></stop><stop offset="85.55555555555554%" stop-color="#fbae3c" stop-opacity="1"></stop></linearGradient></defs><defs><linearGradient id="grad2_2" x1="0%" y1="100%" x2="56.3%" y2="0%"><stop offset="14.444444444444446%" stop-color="#f48350" stop-opacity="1"></stop><stop offset="85.55555555555554%" stop-color="#d96162" stop-opacity="1"></stop></linearGradient></defs><defs><linearGradient id="grad2_3" x1="0%" y1="100%" x2="56.3%" y2="0%"><stop offset="14.444444444444446%" stop-color="#af4b6d" stop-opacity="1"></stop><stop offset="85.55555555555554%" stop-color="#d96162" stop-opacity="1"></stop></linearGradient></defs><defs><linearGradient id="grad2_4" x1="0%" y1="100%" x2="56.3%" y2="0%"><stop offset="14.444444444444446%" stop-color="#af4b6d" stop-opacity="1"></stop><stop offset="85.55555555555554%" stop-color="#7c3e6b" stop-opacity="1"></stop></linearGradient></defs><defs><linearGradient id="grad2_5" x1="0%" y1="100%" x2="56.3%" y2="0%"><stop offset="14.444444444444446%" stop-color="#49335c" stop-opacity="1"></stop><stop offset="85.55555555555554%" stop-color="#7c3e6b" stop-opacity="1"></stop></linearGradient></defs><defs><linearGradient id="grad2_6" x1="0%" y1="100%" x2="56.3%" y2="0%"><stop offset="14.444444444444446%" stop-color="#49335c" stop-opacity="1"></stop><stop offset="85.55555555555554%" stop-color="#1d2540" stop-opacity="1"></stop></linearGradient></defs><defs><linearGradient id="grad2_7" x1="0%" y1="100%" x2="56.3%" y2="0%"><stop offset="14.444444444444446%" stop-color="#001220" stop-opacity="1"></stop><stop offset="85.55555555555554%" stop-color="#1d2540" stop-opacity="1"></stop></linearGradient></defs><g transform="translate(960, 540)"><path d="M-486 0C-461.9 -47.5 -437.8 -95 -411.8 -133.8C-385.8 -172.7 -357.8 -202.9 -339 -246.3C-320.1 -289.7 -310.3 -346.2 -280.4 -385.9C-250.4 -425.6 -200.3 -448.3 -150.2 -462.2C-100.1 -476.1 -50 -481 0 -486L0 0Z" fill="#0c1c30"></path><path d="M-425.2 0C-404.2 -41.5 -383.1 -83.1 -360.3 -117.1C-337.6 -151.1 -313.1 -177.5 -296.6 -215.5C-280.1 -253.5 -271.5 -303 -245.3 -337.7C-219.1 -372.4 -175.2 -392.3 -131.4 -404.4C-87.6 -416.6 -43.8 -420.9 0 -425.2L0 0Z" fill="#312c4f"></path><path d="M-364.5 0C-346.4 -35.6 -328.4 -71.2 -308.9 -100.4C-289.3 -129.5 -268.4 -152.2 -254.2 -184.7C-240.1 -217.3 -232.8 -259.7 -210.3 -289.4C-187.8 -319.2 -150.2 -336.3 -112.6 -346.7C-75.1 -357.1 -37.5 -360.8 0 -364.5L0 0Z" fill="#623965"></path><path d="M-303.7 0C-288.7 -29.7 -273.6 -59.3 -257.4 -83.6C-241.1 -107.9 -223.7 -126.8 -211.9 -153.9C-200.1 -181 -194 -216.4 -175.2 -241.2C-156.5 -266 -125.2 -280.2 -93.9 -288.9C-62.6 -297.6 -31.3 -300.7 0 -303.7L0 0Z" fill="#96446e"></path><path d="M-243 0C-231 -23.7 -218.9 -47.5 -205.9 -66.9C-192.9 -86.3 -178.9 -101.4 -169.5 -123.1C-160.1 -144.8 -155.2 -173.1 -140.2 -193C-125.2 -212.8 -100.1 -224.2 -75.1 -231.1C-50 -238 -25 -240.5 0 -243L0 0Z" fill="#c55469"></path><path d="M-182.2 0C-173.2 -17.8 -164.2 -35.6 -154.4 -50.2C-144.7 -64.7 -134.2 -76.1 -127.1 -92.4C-120 -108.6 -116.4 -129.8 -105.1 -144.7C-93.9 -159.6 -75.1 -168.1 -56.3 -173.3C-37.5 -178.5 -18.8 -180.4 0 -182.2L0 0Z" fill="#e9705a"></path><path d="M-121.5 0C-115.5 -11.9 -109.5 -23.7 -103 -33.5C-96.4 -43.2 -89.5 -50.7 -84.7 -61.6C-80 -72.4 -77.6 -86.6 -70.1 -96.5C-62.6 -106.4 -50.1 -112.1 -37.5 -115.6C-25 -119 -12.5 -120.3 0 -121.5L0 0Z" fill="#fa9845"></path><path d="M-60.7 0C-57.7 -5.9 -54.7 -11.9 -51.5 -16.7C-48.2 -21.6 -44.7 -25.4 -42.4 -30.8C-40 -36.2 -38.8 -43.3 -35 -48.2C-31.3 -53.2 -25 -56 -18.8 -57.8C-12.5 -59.5 -6.3 -60.1 0 -60.7L0 0Z" fill="#fbae3c"></path></g><g transform="translate(0, 0)"><path d="M486 0C469.5 46 453 92 442.2 143.7C431.4 195.4 426.3 252.7 393.2 285.7C360 318.6 298.9 327.2 253.9 349.5C209 371.8 180.2 407.7 140.6 432.7C101 457.8 50.5 471.9 0 486L0 0Z" fill="#0c1c30"></path><path d="M425.3 0C410.8 40.3 396.4 80.5 387 125.7C377.5 170.9 373 221.1 344 250C315 278.8 261.5 286.3 222.2 305.8C182.8 325.3 157.7 356.7 123 378.6C88.4 400.5 44.2 412.9 0 425.3L0 0Z" fill="#312c4f"></path><path d="M364.5 0C352.1 34.5 339.8 69 331.7 107.8C323.6 146.5 319.7 189.5 294.9 214.2C270 239 224.2 245.4 190.4 262.1C156.7 278.8 135.2 305.8 105.5 324.5C75.7 343.3 37.9 353.9 0 364.5L0 0Z" fill="#623965"></path><path d="M303.8 0C293.5 28.8 283.2 57.5 276.4 89.8C269.7 122.1 266.5 157.9 245.7 178.5C225 199.1 186.8 204.5 158.7 218.4C130.6 232.4 112.6 254.8 87.9 270.5C63.1 286.1 31.6 294.9 0 303.8L0 0Z" fill="#96446e"></path><path d="M243 0C234.8 23 226.5 46 221.1 71.8C215.7 97.7 213.2 126.3 196.6 142.8C180 159.3 149.4 163.6 127 174.7C104.5 185.9 90.1 203.9 70.3 216.4C50.5 228.9 25.2 235.9 0 243L0 0Z" fill="#c55469"></path><path d="M182.3 0C176.1 17.3 169.9 34.5 165.8 53.9C161.8 73.3 159.9 94.8 147.4 107.1C135 119.5 112.1 122.7 95.2 131.1C78.4 139.4 67.6 152.9 52.7 162.3C37.9 171.7 18.9 177 0 182.3L0 0Z" fill="#e9705a"></path><path d="M121.5 0C117.4 11.5 113.3 23 110.6 35.9C107.9 48.8 106.6 63.2 98.3 71.4C90 79.7 74.7 81.8 63.5 87.4C52.2 92.9 45.1 101.9 35.2 108.2C25.2 114.4 12.6 118 0 121.5L0 0Z" fill="#fa9845"></path><path d="M60.8 0C58.7 5.8 56.6 11.5 55.3 18C53.9 24.4 53.3 31.6 49.1 35.7C45 39.8 37.4 40.9 31.7 43.7C26.1 46.5 22.5 51 17.6 54.1C12.6 57.2 6.3 59 0 60.8L0 0Z" fill="#fbae3c"></path></g></svg>