<svg id="visual" viewBox="0 0 960 540" width="960" height="540" xmlns="http://www.w3.org/2000/svg" xmlns:xlink="http://www.w3.org/1999/xlink" version="1.1"><rect x="0" y="0" width="960" height="540" fill="#001220"></rect><defs><linearGradient id="grad1_0" x1="43.8%" y1="0%" x2="100%" y2="100%"><stop offset="14.444444444444446%" stop-color="#fbae3c" stop-opacity="1"></stop><stop offset="85.55555555555554%" stop-color="#fbae3c" stop-opacity="1"></stop></linearGradient></defs><defs><linearGradient id="grad1_1" x1="43.8%" y1="0%" x2="100%" y2="100%"><stop offset="14.444444444444446%" stop-color="#fbae3c" stop-opacity="1"></stop><stop offset="85.55555555555554%" stop-color="#f48350" stop-opacity="1"></stop></linearGradient></defs><defs><linearGradient id="grad1_2" x1="43.8%" y1="0%" x2="100%" y2="100%"><stop offset="14.444444444444446%" stop-color="#d96162" stop-opacity="1"></stop><stop offset="85.55555555555554%" stop-color="#f48350" stop-opacity="1"></stop></linearGradient></defs><defs><linearGradient id="grad1_3" x1="43.8%" y1="0%" x2="100%" y2="100%"><stop offset="14.444444444444446%" stop-color="#d96162" stop-opacity="1"></stop><stop offset="85.55555555555554%" stop-color="#af4b6d" stop-opacity="1"></stop></linearGradient></defs><defs><linearGradient id="grad1_4" x1="43.8%" y1="0%" x2="100%" y2="100%"><stop offset="14.444444444444446%" stop-color="#7c3e6b" stop-opacity="1"></stop><stop offset="85.55555555555554%" stop-color="#af4b6d" stop-opacity="1"></stop></linearGradient></defs><defs><linearGradient id="grad1_5" x1="43.8%" y1="0%" x2="100%" y2="100%"><stop offset="14.444444444444446%" stop-color="#7c3e6b" stop-opacity="1"></stop><stop offset="85.55555555555554%" stop-color="#49335c" stop-opacity="1"></stop></linearGradient></defs><defs><linearGradient id="grad1_6" x1="43.8%" y1="0%" x2="100%" y2="100%"><stop offset="14.444444444444446%" stop-color="#1d2540" stop-opacity="1"></stop><stop offset="85.55555555555554%" stop-color="#49335c" stop-opacity="1"></stop></linearGradient></defs><defs><linearGradient id="grad1_7" x1="43.8%" y1="0%" x2="100%" y2="100%"><stop offset="14.444444444444446%" stop-color="#1d2540" stop-opacity="1"></stop><stop offset="85.55555555555554%" stop-color="#001220" stop-opacity="1"></stop></linearGradient></defs><defs><linearGradient id="grad2_0" x1="0%" y1="0%" x2="56.3%" y2="100%"><stop offset="14.444444444444446%" stop-color="#fbae3c" stop-opacity="1"></stop><stop offset="85.55555555555554%" stop-color="#fbae3c" stop-opacity="1"></stop></linearGradient></defs><defs><linearGradient id="grad2_1" x1="0%" y1="0%" x2="56.3%" y2="100%"><stop offset="14.444444444444446%" stop-color="#f48350" stop-opacity="1"></stop><stop offset="85.55555555555554%" stop-color="#fbae3c" stop-opacity="1"></stop></linearGradient></defs><defs><linearGradient id="grad2_2" x1="0%" y1="0%" x2="56.3%" y2="100%"><stop offset="14.444444444444446%" stop-color="#f48350" stop-opacity="1"></stop><stop offset="85.55555555555554%" stop-color="#d96162" stop-opacity="1"></stop></linearGradient></defs><defs><linearGradient id="grad2_3" x1="0%" y1="0%" x2="56.3%" y2="100%"><stop offset="14.444444444444446%" stop-color="#af4b6d" stop-opacity="1"></stop><stop offset="85.55555555555554%" stop-color="#d96162" stop-opacity="1"></stop></linearGradient></defs><defs><linearGradient id="grad2_4" x1="0%" y1="0%" x2="56.3%" y2="100%"><stop offset="14.444444444444446%" stop-color="#af4b6d" stop-opacity="1"></stop><stop offset="85.55555555555554%" stop-color="#7c3e6b" stop-opacity="1"></stop></linearGradient></defs><defs><linearGradient id="grad2_5" x1="0%" y1="0%" x2="56.3%" y2="100%"><stop offset="14.444444444444446%" stop-color="#49335c" stop-opacity="1"></stop><stop offset="85.55555555555554%" stop-color="#7c3e6b" stop-opacity="1"></stop></linearGradient></defs><defs><linearGradient id="grad2_6" x1="0%" y1="0%" x2="56.3%" y2="100%"><stop offset="14.444444444444446%" stop-color="#49335c" stop-opacity="1"></stop><stop offset="85.55555555555554%" stop-color="#1d2540" stop-opacity="1"></stop></linearGradient></defs><defs><linearGradient id="grad2_7" x1="0%" y1="0%" x2="56.3%" y2="100%"><stop offset="14.444444444444446%" stop-color="#001220" stop-opacity="1"></stop><stop offset="85.55555555555554%" stop-color="#1d2540" stop-opacity="1"></stop></linearGradient></defs><g transform="translate(960, 0)"><path d="M0 486C-47.5 461.9 -95 437.8 -133.8 411.8C-172.7 385.8 -202.9 357.8 -246.3 339C-289.7 320.1 -346.2 310.3 -385.9 280.4C-425.6 250.4 -448.3 200.3 -462.2 150.2C-476.1 100.1 -481 50 -486 0L0 0Z" fill="#0c1c30"></path><path d="M0 425.3C-41.5 404.2 -83.1 383.1 -117.1 360.3C-151.1 337.6 -177.5 313.1 -215.5 296.6C-253.5 280.1 -303 271.5 -337.7 245.3C-372.4 219.1 -392.3 175.2 -404.4 131.4C-416.6 87.6 -420.9 43.8 -425.2 0L0 0Z" fill="#312c4f"></path><path d="M0 364.5C-35.6 346.4 -71.2 328.4 -100.4 308.9C-129.5 289.3 -152.2 268.4 -184.7 254.2C-217.3 240.1 -259.7 232.8 -289.4 210.3C-319.2 187.8 -336.3 150.2 -346.7 112.6C-357.1 75.1 -360.8 37.5 -364.5 0L0 0Z" fill="#623965"></path><path d="M0 303.8C-29.7 288.7 -59.3 273.6 -83.6 257.4C-107.9 241.1 -126.8 223.7 -153.9 211.9C-181 200.1 -216.4 194 -241.2 175.2C-266 156.5 -280.2 125.2 -288.9 93.9C-297.6 62.6 -300.7 31.3 -303.7 0L0 0Z" fill="#96446e"></path><path d="M0 243C-23.7 231 -47.5 218.9 -66.9 205.9C-86.3 192.9 -101.4 178.9 -123.1 169.5C-144.8 160.1 -173.1 155.2 -193 140.2C-212.8 125.2 -224.2 100.1 -231.1 75.1C-238 50 -240.5 25 -243 0L0 0Z" fill="#c55469"></path><path d="M0 182.3C-17.8 173.2 -35.6 164.2 -50.2 154.4C-64.7 144.7 -76.1 134.2 -92.4 127.1C-108.6 120 -129.8 116.4 -144.7 105.1C-159.6 93.9 -168.1 75.1 -173.3 56.3C-178.5 37.5 -180.4 18.8 -182.2 0L0 0Z" fill="#e9705a"></path><path d="M0 121.5C-11.9 115.5 -23.7 109.5 -33.5 103C-43.2 96.4 -50.7 89.5 -61.6 84.7C-72.4 80 -86.6 77.6 -96.5 70.1C-106.4 62.6 -112.1 50.1 -115.6 37.5C-119 25 -120.3 12.5 -121.5 0L0 0Z" fill="#fa9845"></path><path d="M0 60.8C-5.9 57.7 -11.9 54.7 -16.7 51.5C-21.6 48.2 -25.4 44.7 -30.8 42.4C-36.2 40 -43.3 38.8 -48.2 35C-53.2 31.3 -56 25 -57.8 18.8C-59.5 12.5 -60.1 6.3 -60.7 0L0 0Z" fill="#fbae3c"></path></g><g transform="translate(0, 540)"><path d="M0 -486C46 -469.5 92 -453 143.7 -442.2C195.4 -431.4 252.7 -426.3 285.7 -393.2C318.6 -360 327.2 -298.9 349.5 -253.9C371.8 -209 407.7 -180.2 432.7 -140.6C457.8 -101 471.9 -50.5 486 0L0 0Z" fill="#0c1c30"></path><path d="M0 -425.2C40.3 -410.8 80.5 -396.4 125.7 -387C170.9 -377.5 221.1 -373 250 -344C278.8 -315 286.3 -261.5 305.8 -222.2C325.3 -182.8 356.7 -157.7 378.6 -123C400.5 -88.4 412.9 -44.2 425.3 0L0 0Z" fill="#312c4f"></path><path d="M0 -364.5C34.5 -352.1 69 -339.8 107.8 -331.7C146.5 -323.6 189.5 -319.7 214.2 -294.9C239 -270 245.4 -224.2 262.1 -190.4C278.8 -156.7 305.8 -135.2 324.5 -105.5C343.3 -75.7 353.9 -37.9 364.5 0L0 0Z" fill="#623965"></path><path d="M0 -303.7C28.8 -293.5 57.5 -283.2 89.8 -276.4C122.1 -269.7 157.9 -266.5 178.5 -245.7C199.1 -225 204.5 -186.8 218.4 -158.7C232.4 -130.6 254.8 -112.6 270.5 -87.9C286.1 -63.1 294.9 -31.6 303.8 0L0 0Z" fill="#96446e"></path><path d="M0 -243C23 -234.8 46 -226.5 71.8 -221.1C97.7 -215.7 126.3 -213.2 142.8 -196.6C159.3 -180 163.6 -149.4 174.7 -127C185.9 -104.5 203.9 -90.1 216.4 -70.3C228.9 -50.5 235.9 -25.2 243 0L0 0Z" fill="#c55469"></path><path d="M0 -182.2C17.3 -176.1 34.5 -169.9 53.9 -165.8C73.3 -161.8 94.8 -159.9 107.1 -147.4C119.5 -135 122.7 -112.1 131.1 -95.2C139.4 -78.4 152.9 -67.6 162.3 -52.7C171.7 -37.9 177 -18.9 182.3 0L0 0Z" fill="#e9705a"></path><path d="M0 -121.5C11.5 -117.4 23 -113.3 35.9 -110.6C48.8 -107.9 63.2 -106.6 71.4 -98.3C79.7 -90 81.8 -74.7 87.4 -63.5C92.9 -52.2 101.9 -45.1 108.2 -35.2C114.4 -25.2 118 -12.6 121.5 0L0 0Z" fill="#fa9845"></path><path d="M0 -60.7C5.8 -58.7 11.5 -56.6 18 -55.3C24.4 -53.9 31.6 -53.3 35.7 -49.1C39.8 -45 40.9 -37.4 43.7 -31.7C46.5 -26.1 51 -22.5 54.1 -17.6C57.2 -12.6 59 -6.3 60.8 0L0 0Z" fill="#fbae3c"></path></g></svg>