<svg id="visual" viewBox="0 0 900 100" width="900" height="100" xmlns="http://www.w3.org/2000/svg" xmlns:xlink="http://www.w3.org/1999/xlink" version="1.1"><path d="M0 25L10.7 33.3C21.3 41.7 42.7 58.3 64.2 56.5C85.7 54.7 107.3 34.3 128.8 32.8C150.3 31.3 171.7 48.7 193 55.2C214.3 61.7 235.7 57.3 257 59C278.3 60.7 299.7 68.3 321.2 61.5C342.7 54.7 364.3 33.3 385.8 25.8C407.3 18.3 428.7 24.7 450 30.8C471.3 37 492.7 43 514.2 48.5C535.7 54 557.3 59 578.8 63.8C600.3 68.7 621.7 73.3 643 67.3C664.3 61.3 685.7 44.7 707 40.2C728.3 35.7 749.7 43.3 771.2 51C792.7 58.7 814.3 66.3 835.8 62.5C857.3 58.7 878.7 43.3 889.3 35.7L900 28L900 101L889.3 101C878.7 101 857.3 101 835.8 101C814.3 101 792.7 101 771.2 101C749.7 101 728.3 101 707 101C685.7 101 664.3 101 643 101C621.7 101 600.3 101 578.8 101C557.3 101 535.7 101 514.2 101C492.7 101 471.3 101 450 101C428.7 101 407.3 101 385.8 101C364.3 101 342.7 101 321.2 101C299.7 101 278.3 101 257 101C235.7 101 214.3 101 193 101C171.7 101 150.3 101 128.8 101C107.3 101 85.7 101 64.2 101C42.7 101 21.3 101 10.7 101L0 101Z" fill="#0066FF" stroke-linecap="round" stroke-linejoin="miter"></path></svg>