<svg id="visual" viewBox="0 0 900 100" width="900" height="100" xmlns="http://www.w3.org/2000/svg" xmlns:xlink="http://www.w3.org/1999/xlink" version="1.1"><rect x="0" y="0" width="900" height="100" fill="#002233"></rect><path d="M0 87L10.7 74.2C21.3 61.3 42.7 35.7 64.2 24.8C85.7 14 107.3 18 128.8 27.3C150.3 36.7 171.7 51.3 193 50.7C214.3 50 235.7 34 257 36.2C278.3 38.3 299.7 58.7 321.2 62.7C342.7 66.7 364.3 54.3 385.8 41.5C407.3 28.7 428.7 15.3 450 13.5C471.3 11.7 492.7 21.3 514.2 35.5C535.7 49.7 557.3 68.3 578.8 66.5C600.3 64.7 621.7 42.3 643 33C664.3 23.7 685.7 27.3 707 39.3C728.3 51.3 749.7 71.7 771.2 77.3C792.7 83 814.3 74 835.8 64C857.3 54 878.7 43 889.3 37.5L900 32L900 0L889.3 0C878.7 0 857.3 0 835.8 0C814.3 0 792.7 0 771.2 0C749.7 0 728.3 0 707 0C685.7 0 664.3 0 643 0C621.7 0 600.3 0 578.8 0C557.3 0 535.7 0 514.2 0C492.7 0 471.3 0 450 0C428.7 0 407.3 0 385.8 0C364.3 0 342.7 0 321.2 0C299.7 0 278.3 0 257 0C235.7 0 214.3 0 193 0C171.7 0 150.3 0 128.8 0C107.3 0 85.7 0 64.2 0C42.7 0 21.3 0 10.7 0L0 0Z" fill="#001220" stroke-linecap="round" stroke-linejoin="miter"></path></svg>